# xmcd
#
# Track frame offsets:
#	150
#	10736
#	26823
#	40086
#	57966
#	67230
#	81976
#	93234
#	106991
#	112175
#	127019
#
# Disc length: 1829 seconds
#
# Revision: 0
# Processed by: cddbd v1.5.2PL0 Copyright (c) Steve Scherf et al.
# Submitted via: dBpowerAMP V4.0
#
DISCID=9607230b
DTITLE=Sam Chatmon - Blues When It Rains
DYEAR=1900
DGENRE=Blues
TTITLE0=St Louis Blues
TTITLE1=That's All Right
TTITLE2=Stoop Down Girl
TTITLE3=Baby Please Come Back To Me
TTITLE4=I'm Fool About Your Loving
TTITLE5=Prowling Ground Hog
TTITLE6=Go Back Old Devil
TTITLE7=Used To Be
TTITLE8=Blues When It Rains
TTITLE9=Good Eat Meat Boy
TTITLE10=Let's Get Drunk Again
EXTD=
EXTT0=
EXTT1=
EXTT2=
EXTT3=
EXTT4=
EXTT5=
EXTT6=
EXTT7=
EXTT8=
EXTT9=
EXTT10=
PLAYORDER=
